<svg width="32" height="32" viewBox="0 0 32 32" fill="none" xmlns="http://www.w3.org/2000/svg">
<g clip-path="url(#clip0_180_1710)">
<path d="M8.43845 11.1955C12.6119 7.10931 19.3785 7.10931 23.5521 11.1955L24.0543 11.6873C24.263 11.8916 24.263 12.2228 24.0543 12.4272L22.3361 14.1095C22.2317 14.2116 22.0626 14.2116 21.9582 14.1095L21.267 13.4327C18.3555 10.5821 13.635 10.5821 10.7234 13.4327L9.98317 14.1574C9.87887 14.2596 9.70972 14.2596 9.60535 14.1574L7.88716 12.4752C7.67842 12.2708 7.67842 11.9396 7.88716 11.7353L8.43845 11.1955ZM27.1055 14.6747L28.6347 16.1719C28.8434 16.3762 28.8434 16.7074 28.6347 16.9118L21.7394 23.6631C21.5307 23.8673 21.1923 23.8673 20.9837 23.6631L16.0897 18.8715C16.0375 18.8204 15.953 18.8204 15.9008 18.8715L11.007 23.6631C10.7983 23.8673 10.4599 23.8673 10.2513 23.6631L3.35572 16.9117C3.14705 16.7074 3.14705 16.3762 3.35572 16.1718L4.88495 14.6745C5.09363 14.4703 5.43196 14.4703 5.64064 14.6745L10.5347 19.4662C10.5868 19.5173 10.6714 19.5173 10.7235 19.4662L15.6173 14.6745C15.8259 14.4703 16.1643 14.4703 16.373 14.6745L21.267 19.4662C21.3192 19.5173 21.4037 19.5173 21.4559 19.4662L26.3498 14.6747C26.5585 14.4703 26.8968 14.4703 27.1055 14.6747Z" fill="#3396FF"/>
</g>
<defs>
<clipPath id="clip0_180_1710">
<rect width="31.99" height="31.99" fill="white"/>
</clipPath>
</defs>
</svg>
